<svg width="32" height="32" viewBox="0 0 32 32" fill="none" xmlns="http://www.w3.org/2000/svg">
<circle cx="16" cy="16" r="16" fill="#DBEDCC"/>
<path d="M13.9998 23.5013C14.35 23.5018 14.6894 23.3797 14.959 23.1563L14.9591 23.1562C15.111 23.0302 15.2366 22.8756 15.3286 22.7011C15.4206 22.5266 15.4773 22.3356 15.4954 22.1391C15.5135 21.9427 15.4927 21.7446 15.4341 21.5562C15.3756 21.3677 15.2804 21.1927 15.1541 21.0412L12.2069 17.5013H23C23.3978 17.5013 23.7794 17.3432 24.0607 17.0619C24.342 16.7806 24.5 16.3991 24.5 16.0013C24.5 15.6034 24.342 15.2219 24.0607 14.9406C23.7794 14.6593 23.3978 14.5013 23 14.5013H12.2069L15.1543 10.9612L15.1545 10.9609C15.409 10.6547 15.5315 10.2599 15.4949 9.86342C15.4584 9.46695 15.2658 9.10123 14.9596 8.84673C14.6534 8.59223 14.2586 8.46979 13.8622 8.50634C13.4657 8.54289 13.1001 8.73541 12.8456 9.04155C12.8455 9.04158 12.8455 9.04162 12.8455 9.04165L7.84589 15.0412L7.83296 15.0567L7.82132 15.0732C7.77355 15.141 7.73083 15.2122 7.69351 15.2862L7.68601 15.3011L7.65928 15.3202L7.60501 15.4574C7.53703 15.6294 7.50143 15.8125 7.50001 15.9974L7.49996 15.9974L7.50001 16.0051C7.50121 16.1616 7.52691 16.3169 7.57601 16.4652C7.58246 16.5115 7.59531 16.5687 7.62067 16.6267C7.65371 16.7022 7.69843 16.7615 7.74313 16.8076C7.76744 16.8493 7.79352 16.8899 7.82132 16.9293L7.83296 16.9458L7.84589 16.9613L12.8458 22.9613C12.9868 23.1306 13.1635 23.2667 13.3631 23.3601C13.5624 23.4533 13.7798 23.5015 13.9998 23.5013ZM13.9998 23.5013C13.9995 23.5013 13.9993 23.5013 13.999 23.5013L14 23.0013L14.0008 23.5013C14.0005 23.5013 14.0001 23.5013 13.9998 23.5013ZM7.64 15.5113C7.64 15.5282 7.63896 15.5256 7.64 15.5106V15.5113Z" fill="#FEFCFB" stroke="#FEFCFB"/>
</svg>
