<svg width="65" height="55" viewBox="0 0 65 55" fill="none" xmlns="http://www.w3.org/2000/svg">
<path fill-rule="evenodd" clip-rule="evenodd" d="M43.7438 0.0596392C42.8455 0.257339 37.8721 2.14309 31.735 5.55976C32.964 7.91188 33.2988 10.3502 32.3801 11.9774C30.9673 14.512 27.0923 14.0862 23.7277 11.0244C23.5154 10.8419 23.3357 10.6239 23.1397 10.4262C11.7965 16.9199 0 23.9509 0 23.9509V37.1005C4.92847 37.7342 8.7953 42.7933 8.83614 49.0335L40.4894 52.5718C41.0774 47.6293 43.4702 43.9237 46.3448 43.9237C49.4726 43.9237 52.0123 48.3086 52.2941 53.8949L62.2164 55L63.2045 43.6449C60.236 43.3154 57.9657 41.6324 57.9657 39.5845C57.9657 37.3793 60.6076 35.6 63.9232 35.4784C63.9232 35.4784 64.3682 30.6068 64.9358 23.956C66.1771 14.9632 49.0683 -1.10122 43.7438 0.0596392ZM55.136 13.1535C57.0266 13.1535 58.5578 14.948 58.5578 17.1683C58.5578 19.3734 57.0266 21.1781 55.136 21.1781C53.2536 21.1781 51.7183 19.3734 51.7183 17.1683C51.7183 14.9429 53.2536 13.1535 55.136 13.1535ZM42.874 8.36304C45.1852 8.36304 47.0594 9.94465 47.0594 11.8963C47.0594 13.848 45.1852 15.4245 42.874 15.4245C40.5629 15.4245 38.6928 13.8429 38.6928 11.8963C38.6928 9.93958 40.5629 8.36304 42.874 8.36304ZM22.4007 13.047C24.2708 13.047 25.7775 14.8111 25.7775 16.996C25.7775 19.1757 24.2708 20.9347 22.4007 20.9347C20.5305 20.9347 19.0238 19.1707 19.0238 16.996C19.0197 14.8111 20.5305 13.047 22.4007 13.047ZM22.3558 45.6675C18.7339 45.6675 15.8062 43.1228 15.8062 39.9647C15.8062 36.8167 18.7339 34.2618 22.3558 34.2618C25.9694 34.2618 28.9012 36.8167 28.9012 39.9647C28.8971 43.1228 25.9694 45.6675 22.3558 45.6675ZM61.2486 29.9833H48.9581C48.0271 32.4267 46.0426 35.1337 42.8087 35.1337C39.5666 35.1337 37.5617 32.4318 36.6349 29.9833H3.88725V24.4376H36.7614C37.8027 22.1716 39.5299 19.4495 42.6168 19.4495C45.6997 19.4495 47.7862 22.1716 48.8274 24.4376H61.2486V29.9833Z" fill="#038E10"/>
</svg>
