<svg width="51" height="60" viewBox="0 0 51 60" fill="none" xmlns="http://www.w3.org/2000/svg">
<path d="M40.1569 15.1172C43.0553 15.6645 45.4326 17.3051 47.2908 20.0391C48.9259 22.4613 50.0408 25.5082 50.6346 29.1797C51.1558 32.5395 51.1167 35.898 50.523 39.2578C49.6312 44.8043 47.8478 49.4531 45.1725 53.2031C41.9761 57.7348 37.9638 60 33.1335 60C31.9437 60 30.6446 59.6098 29.2317 58.8281C28.2652 58.2035 27.1882 57.8906 25.9984 57.8906C24.8087 57.8906 23.7328 58.2035 22.7652 58.8281C21.3522 59.6098 20.0531 60 18.8634 60C14.033 60 10.0207 57.7348 6.82431 53.2031C4.14909 49.4531 2.36561 44.8043 1.47387 39.2578C0.880117 35.898 0.841055 32.5395 1.36226 29.1797C1.95601 25.5082 3.07097 22.4613 4.70601 20.0391C6.56427 17.3051 8.9415 15.6645 11.8399 15.1172C13.6234 14.8043 16.0754 15.0785 19.1971 15.9375C21.8723 16.7191 24.139 17.6566 25.9973 18.75C27.8556 17.6566 30.1223 16.7191 32.7975 15.9375C35.9203 15.0785 38.3734 14.8043 40.1569 15.1172ZM34.0252 10.3125C32.985 11.3285 31.6089 12.0703 29.9002 12.5391C28.7105 12.9293 27.4114 13.125 25.9984 13.125L24.3265 13.0078C24.1781 11.9145 24.1781 10.6641 24.3265 9.25781C24.6245 6.44531 25.4783 4.29727 26.8902 2.8125C27.9303 1.79648 29.3065 1.05469 31.0152 0.585938C32.2049 0.195703 33.504 0 34.917 0L36.5888 0.117188L36.7004 1.875C36.7004 3.35977 36.514 4.72617 36.1435 5.97656C35.6982 7.77305 34.9928 9.21914 34.0252 10.3125Z" fill="#038E10"/>
</svg>
