<svg width="54" height="66" viewBox="0 0 54 66" fill="none" xmlns="http://www.w3.org/2000/svg">
<path fill-rule="evenodd" clip-rule="evenodd" d="M38.6474 9.7075C38.6474 9.7075 41.5557 8.395 41.6486 5.85422C41.7427 3.31125 39.0007 0.1875 39.0007 0.1875C39.0007 0.1875 36.0333 3.12531 35.9404 5.66828C35.8452 8.20906 38.6474 9.7075 38.6474 9.7075ZM42.995 7.37247C42.995 7.37247 42.4952 3.6756 45.2306 1.88076C47.9694 0.0859115 53.25 0.649193 53.25 0.649193C53.25 0.649193 52.0009 5.49232 49.2644 7.28279C46.8111 8.89169 43.7267 7.68747 43.112 7.4206C40.2563 9.31279 37.7483 11.5736 35.5542 14.0673C36.1908 13.4461 37.0767 12.874 38.2339 12.7734C40.9355 12.5393 44.4191 14.9303 44.4191 14.9303C44.4191 14.9303 41.4583 17.8758 38.7589 18.1076C36.0574 18.3406 34.3008 15.8031 34.3008 15.8031C34.3008 15.8031 34.4649 15.4312 34.8039 14.9511C33.6683 16.3099 32.6115 17.7326 31.6386 19.2123C31.565 19.326 31.4943 19.4409 31.4235 19.5561L31.4234 19.5562C31.3784 19.6293 31.3334 19.7026 31.2875 19.7756C31.8814 19.0723 32.7356 18.3975 33.9235 18.1809C36.7059 17.6745 40.5986 19.8183 40.5986 19.8183C40.5986 19.8183 37.8456 23.1739 35.0631 23.6803C32.2784 24.1867 30.1664 21.7181 30.1664 21.7181C30.1664 21.7181 30.2025 21.6033 30.2824 21.414C29.3915 22.9184 28.5703 24.4629 27.8214 26.0428C28.3395 25.4235 29.014 24.9545 29.7749 24.6843C32.6831 23.6584 37.3042 25.3067 37.3042 25.3067C37.3042 25.3067 34.9877 29.4039 32.0794 30.4298C29.3177 31.4043 26.6916 29.3776 26.4345 29.1709C25.7877 30.6888 25.1927 32.2282 24.6506 33.7865C25.0436 33.3517 25.5158 32.9958 26.0419 32.7376C28.9556 31.3081 34.0405 32.4773 34.0405 32.4773C34.0405 32.4773 32.1702 37.0601 29.2575 38.494C26.7386 39.7311 23.9944 38.3387 23.2955 37.9406C22.9225 39.1897 22.5725 40.4464 22.2466 41.7075C22.1406 42.1029 22.047 42.501 21.9534 42.8993L21.9534 42.8993L21.9534 42.8994C21.9002 43.1257 21.847 43.3519 21.7916 43.5778C23.3594 42.5164 25.0651 41.6744 26.8611 41.0753C27.2705 40.9385 27.6858 40.8293 28.1018 40.7199L28.2808 40.6728C31.1035 37.7648 34.2635 35.2044 37.6936 33.0461C41.1822 30.8279 44.9169 29.0232 48.8225 27.6681C45.212 29.6193 41.7284 31.7062 38.4702 34.0545C35.9187 35.8938 33.4975 37.9075 31.2241 40.0811C32.6024 39.9005 33.9937 39.839 35.3825 39.8973C33.5581 40.2484 31.7786 40.6837 30.0581 41.2361C29.9624 41.3344 29.8636 41.4308 29.7647 41.5274L29.7646 41.5275L29.7645 41.5276C29.6557 41.6339 29.5467 41.7403 29.4413 41.8497C26.7136 44.6813 24.2783 47.7806 22.1722 51.1006C21.1489 52.7283 20.2128 54.4092 19.3678 56.1362C19.3384 56.336 19.3073 56.5355 19.2763 56.7349L19.2763 56.7349L19.2761 56.7357L19.2761 56.7358C19.2265 57.0547 19.1768 57.3736 19.1338 57.6937C18.7531 60.3876 18.4513 63.0947 18.227 65.8126C18.0903 63.4031 18.1406 60.987 18.25 58.5753C17.8234 59.5826 17.4363 60.6064 17.1059 61.6542C17.3094 59.8528 17.8103 58.0886 18.3988 56.3572C18.5603 54.0484 18.8066 51.7463 19.137 49.4556C19.1874 49.0939 19.2513 48.734 19.3152 48.3739L19.3153 48.3737L19.3153 48.3736L19.3153 48.3735C19.3527 48.1631 19.39 47.9526 19.4247 47.7417C18.0071 49.2565 16.7793 50.9383 15.7683 52.75C15.1276 53.9052 14.5631 55.101 14.0784 56.3298C13.5821 57.5612 13.1691 58.8245 12.8422 60.1113C12.7975 58.7735 12.9963 57.4325 13.2778 56.1133C13.5798 54.7773 14.0114 53.4739 14.5663 52.2217C15.6927 49.6366 17.3476 47.3159 19.4247 45.4087C19.5108 45.3295 19.603 45.2568 19.6952 45.1842C19.7634 45.1305 19.8316 45.0767 19.8972 45.0204C20.1378 43.7998 20.3938 42.5792 20.6738 41.3651C21.0517 39.8057 21.4729 38.2571 21.937 36.7211C21.7161 37.129 21.5367 37.3773 21.5367 37.3773C21.5367 37.3773 18.8242 37.3675 17.0338 35.787C16.8522 36.8665 16.2878 39.4029 14.8474 40.6564C13.2384 42.0542 10.8967 41.5401 10.293 41.3761C10.2851 42.3759 10.2954 43.3757 10.3236 44.3751C10.3684 46.4587 10.5227 48.5412 10.702 50.6248C10.8964 52.7085 11.1463 54.7866 11.4513 56.857C11.5289 57.3991 11.6177 57.9393 11.7065 58.4796C11.7327 58.6391 11.7589 58.7985 11.7849 58.9581C12.1298 59.35 12.4791 59.7364 12.8404 60.1185L12.8392 60.1229C13.5067 60.8362 14.2003 61.5246 14.9184 62.1869C13.8663 61.5733 12.895 60.8536 11.962 60.0858C12.1347 61.0826 12.3214 62.0769 12.522 63.0684C12.1316 61.955 11.7991 60.8284 11.4939 59.692L11.346 59.5658C11.1687 59.4148 10.9917 59.2639 10.818 59.109C9.55821 57.9636 8.38846 56.7229 7.31907 55.3979C5.17751 52.762 3.46688 49.7925 2.32829 46.625C1.19079 43.4608 0.640635 40.1018 0.763135 36.7779C0.868753 33.4568 1.60711 30.1864 2.9386 27.142C2.2922 30.3576 1.94438 33.5776 2.08876 36.7714C2.23489 39.9612 2.8606 43.1108 3.94485 46.1142C5.02548 49.1242 6.55673 51.9887 8.40735 54.6804C9.24908 55.8874 10.1488 57.0529 11.1034 58.1728C11.0039 57.7703 10.9055 57.3667 10.8103 56.9609C10.3454 54.9003 9.96734 52.8211 9.6772 50.7287C9.37423 48.6353 9.19267 46.5298 9.07563 44.4167C9.01767 43.1873 9.00345 41.9547 9.01438 40.7209C8.93782 41.0676 8.85798 41.2864 8.85798 41.2864C8.85798 41.2864 5.94532 42.0247 4.22048 40.2823C2.49673 38.5389 2.3972 34.7556 2.3972 34.7556C2.3972 34.7556 6.41345 35.1318 8.1372 36.8753C8.61919 37.364 8.94311 37.9863 9.06688 38.6614C9.07107 38.5672 9.0725 38.4732 9.07394 38.3791C9.0755 38.2766 9.07706 38.174 9.0822 38.0708C9.16657 36.7332 9.299 35.399 9.47923 34.0709C9.14563 34.107 6.60267 34.3225 5.29345 32.6217C3.89454 30.8006 4.26642 27.2426 4.26642 27.2426C4.26642 27.2426 7.98626 28.0323 9.38735 29.8534C9.67062 30.2267 9.86445 30.66 9.95392 31.12C10.1873 29.958 10.4709 28.8067 10.8038 27.6692C10.5074 27.6561 8.19735 27.4909 7.2961 25.7693C6.33142 23.9286 7.24798 20.7818 7.24798 20.7818C7.24798 20.7818 10.4647 22.0222 11.4283 23.8618C11.6053 24.208 11.706 24.588 11.7236 24.9764C12.1042 23.9887 12.5374 23.0186 13.023 22.0714C12.8655 22.2858 12.7463 22.4137 12.7463 22.4137C12.7463 22.4137 10.2799 22.1173 9.54923 20.2809C8.81751 18.4445 10.0097 15.5318 10.0097 15.5318C10.0097 15.5318 12.9453 17.0008 13.6749 18.8372C13.9734 19.5864 13.8674 20.3115 13.6464 20.9164C13.8619 20.5368 14.0828 20.1584 14.3191 19.7876C15.4708 18.0026 16.8391 16.339 18.4436 14.9172L18.3594 14.9029C18.3594 14.9029 17.1902 12.2462 18.8395 10.3934C20.4889 8.5406 24.5391 7.95763 24.5391 7.95763C24.5391 7.95763 24.655 11.8 23.0045 13.6517C21.5291 15.3109 18.9752 15.0014 18.4589 14.9183C16.7045 16.9089 15.3024 19.1139 14.1933 21.4392C14.528 20.8114 15.0738 20.1431 15.9838 19.8237C17.3597 19.3425 19.2967 19.7504 20.3303 20.037C20.4178 19.7089 20.5042 19.4158 20.5841 19.1675C20.5446 19.1812 20.5052 19.1962 20.4656 19.2113C20.3757 19.2456 20.2852 19.2801 20.1925 19.2998C18.157 19.7472 16.5274 17.9862 16.5274 17.9862C16.5274 17.9862 17.153 15.7276 19.1874 15.2792C21.2228 14.8318 24.1552 16.3084 24.1552 16.3084C24.1552 16.3084 23.0133 17.8036 21.563 18.7026C22.8361 19.4354 25.518 21.1745 26.3416 23.2297C26.5606 23.7803 26.6515 24.3734 26.6074 24.9643C27.317 23.5941 28.0837 22.2542 28.9053 20.9481C28.4481 20.8026 25.7017 19.8401 25.2052 17.447C24.6649 14.8384 26.9508 11.1897 26.9508 11.1897C26.9508 11.1897 30.5306 13.7687 31.0709 16.3806C31.177 16.8925 31.1574 17.3781 31.0644 17.8298C31.891 16.7284 32.7722 15.6691 33.7047 14.6558C33.4345 14.8701 33.2464 14.985 33.2464 14.985C33.2464 14.985 30.2638 13.8267 30.0166 11.2947C29.7683 8.76372 32.3178 5.49779 32.3178 5.49779C32.3178 5.49779 35.4569 8.27372 35.7063 10.8058C35.8058 11.8175 35.4317 12.6848 34.9483 13.3662C35.3486 12.9714 35.7489 12.5765 36.1678 12.1992C38.2547 10.3311 40.5702 8.68607 43.0945 7.41622L42.995 7.37247ZM12.8404 60.1185L12.8425 60.1208L12.8422 60.1113L12.8404 60.1185ZM16.5689 35.3047C16.3961 35.1012 16.2342 34.8858 16.0975 34.6397C15.9367 34.3509 15.8131 34.037 15.7081 33.7122C15.5517 33.862 15.3877 34.0042 15.2116 34.1223C13.3172 35.4042 10.8628 34.3115 10.7403 34.2558C10.5905 35.5103 10.4702 36.7681 10.4067 38.0314C10.5927 37.6595 10.8519 37.2997 11.2161 36.9836C12.6599 35.7279 15.4095 35.3922 16.5689 35.3047ZM12.2595 30.2854C13.1192 29.7047 14.3409 29.4509 15.4358 29.3459C15.4599 29.1241 15.4883 28.9027 15.5211 28.682C13.7022 29.2048 11.9106 28.005 11.9106 28.005C11.9106 28.005 11.9128 27.9568 11.9205 27.8825C11.5989 29.1239 11.3178 30.3762 11.1111 31.6428C11.3633 31.0943 11.7604 30.625 12.2595 30.2854ZM21.0052 50.5001C22.5211 47.7078 24.3816 45.0817 26.4914 42.6448C24.586 43.5435 22.8084 44.6914 21.2053 46.0584C20.9439 47.2528 20.6934 48.4515 20.4539 49.6525C20.2614 50.6598 20.0875 51.6715 19.9147 52.6843C20.2549 51.9449 20.6186 51.2164 21.0052 50.5001ZM22.2356 31.6253C22.7103 32.474 22.8208 33.3501 22.7508 34.1551C22.7873 34.045 22.8212 33.9338 22.855 33.8228L22.855 33.8227C22.8961 33.6878 22.9371 33.5532 22.9827 33.4212C23.5678 31.7708 24.2109 30.1416 24.9109 28.5365C24.422 28.4654 21.2261 27.9087 20.2155 25.3909C19.7824 24.3136 19.7988 22.9868 19.9727 21.775C19.3405 22.534 18.4797 23.3598 17.5227 23.6934C15.5659 24.3781 13.7109 22.8239 13.7109 22.8239C13.7109 22.8239 13.7558 22.5122 13.9045 22.0878C13.3515 23.3174 12.8712 24.5785 12.4663 25.8645C12.4404 25.9485 12.4187 26.034 12.397 26.1197C12.3774 26.197 12.3578 26.2745 12.335 26.3512C12.6249 25.7136 13.105 25.0486 13.945 24.6625C15.9039 23.7568 19.2617 24.6176 19.2617 24.6176C19.2617 24.6176 18.4458 26.4661 17.1519 27.702C18.7138 28.4239 21.2174 29.8053 22.2356 31.6253ZM17.0337 14.0255C17.5117 15.9352 15.6315 17.4621 15.6315 17.4621C15.6315 17.4621 13.222 16.8769 12.7451 14.9684C12.2671 13.0598 13.8421 10.3123 13.8421 10.3123C13.8421 10.3123 16.5557 12.118 17.0337 14.0255ZM43.6961 13.4612C40.9847 13.3726 39.5825 10.647 39.5825 10.647C39.5825 10.647 41.1827 8.0198 43.893 8.10839C46.6033 8.1948 49.738 10.9773 49.738 10.9773C49.738 10.9773 46.4053 13.5498 43.6961 13.4612Z" fill="#038E10"/>
</svg>
