<svg width="66" height="66" viewBox="0 0 66 66" fill="none" xmlns="http://www.w3.org/2000/svg">
<path fill-rule="evenodd" clip-rule="evenodd" d="M63.9936 9.78636C63.4176 9.21022 62.7336 8.75338 61.9808 8.44201C61.228 8.13064 60.4212 7.97087 59.6065 7.97183C58.9798 7.97183 58.352 8.0659 57.7493 8.25511C58.1629 6.92904 58.1203 5.50262 57.6282 4.20364C57.136 2.90466 56.2228 1.80804 55.0344 1.08891C53.8459 0.36978 52.4508 0.0696093 51.0718 0.236336C49.6927 0.403062 48.4093 1.02707 47.4265 2.00871C44.9654 4.46981 45.5373 7.35225 45.9829 9.59855C46.1657 10.5198 46.3273 11.3341 46.2497 11.9684C46.1589 12.7111 45.0553 14.1942 43.7351 15.7375C39.3393 11.882 34.984 9.11152 32.8611 9.62668C31.6547 9.9198 28.5462 12.4343 24.9817 15.7254L53.2158 37.6989C54.9723 35.6164 56.1754 33.9462 56.3712 33.1379C56.8973 30.969 53.9989 26.4682 50.0133 21.9773C51.5543 20.7337 53.0593 19.7471 53.9639 19.7471L54.0317 19.7493C54.1443 19.7351 54.2603 19.7296 54.3828 19.7296C54.9559 19.7296 55.6424 19.8659 56.4014 20.0165C57.3399 20.2028 58.3895 20.4111 59.4731 20.4111C60.9836 20.4111 62.5597 20.0064 63.9936 18.5725C64.5705 17.9956 65.0281 17.3107 65.3404 16.5569C65.6526 15.8032 65.8133 14.9953 65.8133 14.1794C65.8133 13.3635 65.6526 12.5557 65.3404 11.8019C65.0281 11.0481 64.5705 10.3633 63.9936 9.78636ZM31.7608 12.955L32.8545 11.8612L33.9483 12.955L32.8556 14.0487L31.7608 12.955ZM34.1758 19.9243L33.082 18.8306L34.1758 17.7357L35.2695 18.8295L34.1758 19.9243ZM35.5889 16.2362L33.9483 14.5956L35.5889 12.955L37.2295 14.5956L35.5889 16.2362ZM39.1425 20.7611L38.0487 19.6673L39.1425 18.5736L40.2362 19.6673L39.1425 20.7611ZM62.447 17.027C61.619 17.855 60.7014 18.2246 59.4731 18.2246C58.6036 18.2246 57.7001 18.0453 56.8262 17.8714L56.8207 17.8703C55.9718 17.7022 55.1686 17.5432 54.3828 17.5432C54.2286 17.5432 54.0831 17.5487 53.9409 17.5618C52.4862 17.575 50.535 18.7343 48.5148 20.3487C47.4968 19.2732 46.4467 18.2286 45.3659 17.2162C47.2526 14.985 48.2906 13.3082 48.4218 12.2353C48.5422 11.2542 48.342 10.2436 48.1287 9.17386C47.6508 6.76761 47.4528 5.07668 48.9731 3.55527C49.3464 3.18022 49.7902 2.88283 50.2791 2.68027C50.7679 2.47771 51.2921 2.374 51.8212 2.37511C52.35 2.3741 52.8738 2.47788 53.3623 2.68044C53.8507 2.883 54.2942 3.18033 54.6672 3.55527C55.7281 4.61621 56.1076 6.16824 55.6603 7.60433C55.5414 7.98547 55.5292 8.39185 55.6248 8.77947C55.7204 9.16708 55.9203 9.52113 56.2027 9.80327C56.4852 10.0854 56.8395 10.2848 57.2272 10.38C57.6149 10.4752 58.0213 10.4624 58.4023 10.3431C58.7925 10.2213 59.1989 10.1594 59.6076 10.1593C60.6806 10.1593 61.689 10.5771 62.4481 11.3329C63.2007 12.0894 63.6231 13.1131 63.6229 14.1802C63.6226 15.2472 63.1999 16.2708 62.447 17.027ZM9.62865 32.86C9.1124 34.9841 11.8829 39.3405 15.7383 43.7363C14.1951 45.0554 12.7119 46.159 11.9693 46.2497C11.8524 46.264 11.7348 46.271 11.6171 46.2705C11.0439 46.2705 10.3573 46.1343 9.59832 45.9836L9.59825 45.9836C8.65992 45.7973 7.61078 45.5891 6.52787 45.5891C5.0174 45.5891 3.4424 45.9938 2.0085 47.4277C1.02543 48.4099 0.400176 49.6933 0.232749 51.0728C0.0653231 52.4523 0.365403 53.8481 1.08498 55.0369C1.80457 56.2257 2.90207 57.1389 4.20192 57.6302C5.50177 58.1216 6.92887 58.1628 8.2549 57.7472C7.9162 58.8292 7.88004 59.9833 8.15034 61.0843C8.42064 62.1854 8.9871 63.1915 9.78834 63.9936C10.3647 64.571 11.0495 65.0289 11.8032 65.3411C12.557 65.6532 13.365 65.8134 14.1808 65.8125C14.997 65.8133 15.8053 65.6531 16.5594 65.341C17.3135 65.0289 17.9987 64.571 18.5755 63.9936C21.0375 61.5301 20.4643 58.6454 20.0178 56.3983C19.8349 55.4779 19.6733 54.6644 19.7502 54.0307C19.6988 53.1349 20.7018 51.5927 21.9771 50.0133C26.4691 54 30.9699 56.8974 33.1399 56.3713C34.0641 56.1471 36.1127 54.6104 38.624 52.424L13.5771 27.3782C11.3885 29.8872 9.85178 31.9347 9.62865 32.86ZM20.3518 48.5182C18.7582 50.5154 17.6097 52.4491 17.5627 53.9114C17.4787 54.8439 17.6688 55.8036 17.8694 56.8165L17.8712 56.8252C18.3502 59.2325 18.5493 60.9257 17.029 62.4471C16.6554 62.8216 16.2115 63.1186 15.7226 63.3207C15.2338 63.5229 14.7098 63.6263 14.1808 63.625C13.5494 63.6256 12.9266 63.4774 12.3631 63.1925C11.7996 62.9075 11.3112 62.4937 10.9374 61.9848C10.5636 61.4758 10.315 60.886 10.2117 60.263C10.1084 59.64 10.1533 59.0015 10.3429 58.3991C10.4619 58.0183 10.4744 57.6122 10.3789 57.2248C10.2835 56.8375 10.0838 56.4837 9.80147 56.2018C9.51959 55.9191 9.16563 55.719 8.77804 55.6234C8.39045 55.5277 7.98406 55.5401 7.60303 55.6593C7.21204 55.7807 6.80494 55.8423 6.39553 55.8419C5.86764 55.8433 5.34469 55.7403 4.85681 55.5387C4.36893 55.337 3.92577 55.0409 3.55287 54.6672C2.79381 53.9049 2.3749 52.8943 2.3749 51.8202C2.3749 50.7461 2.79381 49.7355 3.55506 48.9732C4.38303 48.1452 5.29959 47.7755 6.52678 47.7755C7.3927 47.7755 8.29341 47.9539 9.16387 48.1262L9.17147 48.1277L9.19451 48.1323C10.0369 48.299 10.8345 48.4569 11.6149 48.4569C11.8293 48.4569 12.0371 48.4438 12.2329 48.4208C13.3058 48.2896 14.9826 47.2516 17.2138 45.3649C18.2275 46.4477 19.274 47.4992 20.3518 48.5182ZM17.6305 34.423L18.7243 35.5168L17.6305 36.6105L16.5368 35.5168L17.6305 34.423ZM15.0777 34.0129L13.984 35.1055L12.8902 34.0129L13.984 32.9191L15.0777 34.0129ZM40.2932 50.9352L14.4402 26.3959C16.9678 23.5718 20.155 20.3037 23.1967 17.4009L52.3266 38.7356C49.0289 42.5079 44.2996 47.2942 40.2932 50.9352ZM20.9896 24.8198L22.0833 25.9135L23.1771 24.8198L22.0833 23.726L20.9896 24.8198ZM28.6458 32.079L29.7396 30.9853L28.6447 29.8915L27.5521 30.9853L28.6458 32.079ZM27.5521 29.3446L25.9114 27.704L24.2708 29.3446L25.9114 30.9853L27.5521 29.3446Z" fill="#038E10"/>
</svg>
