<svg width="70" height="70" viewBox="0 0 70 70" fill="none" xmlns="http://www.w3.org/2000/svg">
<path d="M35 0C25.7174 0 16.815 3.68749 10.2513 10.2513C3.68749 16.815 0 25.7174 0 35C0 44.2826 3.68749 53.185 10.2513 59.7487C16.815 66.3125 25.7174 70 35 70C44.2826 70 53.185 66.3125 59.7487 59.7487C66.3125 53.185 70 44.2826 70 35C70 25.7174 66.3125 16.815 59.7487 10.2513C53.185 3.68749 44.2826 0 35 0ZM21.875 35C21.875 36.1603 21.4141 37.2731 20.5936 38.0936C19.7731 38.9141 18.6603 39.375 17.5 39.375C16.3397 39.375 15.2269 38.9141 14.4064 38.0936C13.5859 37.2731 13.125 36.1603 13.125 35C13.125 33.8397 13.5859 32.7269 14.4064 31.9064C15.2269 31.0859 16.3397 30.625 17.5 30.625C18.6603 30.625 19.7731 31.0859 20.5936 31.9064C21.4141 32.7269 21.875 33.8397 21.875 35ZM39.375 35C39.375 36.1603 38.9141 37.2731 38.0936 38.0936C37.2731 38.9141 36.1603 39.375 35 39.375C33.8397 39.375 32.7269 38.9141 31.9064 38.0936C31.0859 37.2731 30.625 36.1603 30.625 35C30.625 33.8397 31.0859 32.7269 31.9064 31.9064C32.7269 31.0859 33.8397 30.625 35 30.625C36.1603 30.625 37.2731 31.0859 38.0936 31.9064C38.9141 32.7269 39.375 33.8397 39.375 35ZM56.875 35C56.875 36.1603 56.4141 37.2731 55.5936 38.0936C54.7731 38.9141 53.6603 39.375 52.5 39.375C51.3397 39.375 50.2269 38.9141 49.4064 38.0936C48.5859 37.2731 48.125 36.1603 48.125 35C48.125 33.8397 48.5859 32.7269 49.4064 31.9064C50.2269 31.0859 51.3397 30.625 52.5 30.625C53.6603 30.625 54.7731 31.0859 55.5936 31.9064C56.4141 32.7269 56.875 33.8397 56.875 35Z" fill="#038E10"/>
</svg>
