<svg width="61" height="64" viewBox="0 0 61 64" fill="none" xmlns="http://www.w3.org/2000/svg">
<path d="M2.0004 62.5049C7.2854 67.2649 42.7404 46.1599 47.9904 37.2699C50.5104 32.9999 47.5354 26.7349 42.6704 21.7299C48.2004 18.0549 53.0654 29.4999 57.6854 27.0849C59.7854 25.9649 61.1504 22.4999 60.1354 20.3649C58.3154 16.5849 52.2604 16.5849 48.1654 16.1299C51.0704 15.4299 58.0354 12.4549 58.1754 8.2549C58.3154 5.0349 54.2204 1.3599 51.0004 1.7449C46.7654 2.2349 45.2254 8.3249 43.7904 12.2449C43.6154 9.7599 43.0904 4.2999 40.3604 1.9199C36.7204 -1.2651 32.3454 1.7449 32.2404 5.5949C32.1004 10.2499 42.1104 12.8399 38.9604 18.4399C33.6404 14.3449 27.3754 12.1049 23.3504 14.4499C21.6354 15.5349 19.6754 17.6349 17.6454 20.3649C20.7604 23.6549 25.0654 27.6099 28.4604 29.8849C29.1604 30.3749 29.3704 31.3549 28.8454 32.0549C28.3554 32.7899 27.3754 32.9649 26.6754 32.4749C23.2104 30.1299 18.9754 26.2449 15.8254 22.9899C14.2504 25.3349 12.6404 27.9949 11.1354 30.7949C14.1104 33.8049 17.8904 37.1999 20.9004 39.2299C21.6004 39.7199 21.7754 40.6999 21.2854 41.3999C20.7954 42.1349 19.8154 42.3099 19.0804 41.8199C16.1054 39.7899 12.5704 36.6399 9.5954 33.6999C3.4004 45.9149 -1.1496 59.7049 2.0004 62.5049Z" fill="#038E10"/>
</svg>
