<svg width="364" height="66" viewBox="0 0 364 66" fill="none" xmlns="http://www.w3.org/2000/svg">
<path d="M116.391 19.8493V45.4326C116.391 51.2461 114.812 55.5966 111.655 58.4841C108.498 61.4101 103.955 62.8731 98.026 62.8731C94.946 62.8731 92.0585 62.5266 89.3635 61.8336C86.6685 61.1406 84.3778 60.1203 82.4913 58.7728L86.476 51.0921C87.7465 52.1316 89.3443 52.9401 91.2693 53.5176C93.2328 54.1336 95.1578 54.4416 97.0443 54.4416C99.9318 54.4416 102.049 53.8063 103.397 52.5358C104.744 51.2653 105.418 49.3788 105.418 46.8763V45.8368C103.301 48.3008 100.201 49.5328 96.1203 49.5328C93.3483 49.5328 90.788 48.9168 88.4395 47.6848C86.091 46.4143 84.2238 44.6433 82.8378 42.3718C81.4518 40.0618 80.7588 37.4053 80.7588 34.4023C80.7588 31.4378 81.4518 28.8198 82.8378 26.5483C84.2238 24.2383 86.091 22.4673 88.4395 21.2353C90.788 19.9648 93.3483 19.3296 96.1203 19.3296C100.586 19.3296 103.859 20.7733 105.938 23.6608V19.8493H116.391ZM98.719 40.8126C100.683 40.8126 102.3 40.2158 103.57 39.0223C104.879 37.8288 105.534 36.2888 105.534 34.4023C105.534 32.5158 104.898 30.9951 103.628 29.8401C102.357 28.6466 100.721 28.0498 98.719 28.0498C96.717 28.0498 95.0615 28.6466 93.7525 29.8401C92.482 30.9951 91.8468 32.5158 91.8468 34.4023C91.8468 36.2888 92.5013 37.8288 93.8103 39.0223C95.1193 40.2158 96.7555 40.8126 98.719 40.8126Z" fill="#EFF5E9"/>
<path d="M132.738 23.6031C133.855 22.1786 135.299 21.1198 137.07 20.4268C138.879 19.6953 140.939 19.3296 143.249 19.3296V29.2048C142.248 29.0893 141.42 29.0316 140.766 29.0316C138.417 29.0316 136.569 29.6668 135.222 30.9373C133.913 32.2078 133.258 34.1521 133.258 36.7701V51.1498H122.286V19.8493H132.738V23.6031Z" fill="#EFF5E9"/>
<path d="M162.048 51.6696C158.698 51.6696 155.676 50.9766 152.981 49.5906C150.286 48.2046 148.169 46.2796 146.629 43.8156C145.127 41.3516 144.376 38.5603 144.376 35.4418C144.376 32.3618 145.127 29.5898 146.629 27.1258C148.169 24.6618 150.267 22.7561 152.923 21.4086C155.618 20.0226 158.66 19.3296 162.048 19.3296C165.436 19.3296 168.477 20.0226 171.172 21.4086C173.867 22.7561 175.966 24.6618 177.467 27.1258C178.969 29.5513 179.719 32.3233 179.719 35.4418C179.719 38.5603 178.969 41.3516 177.467 43.8156C175.966 46.2796 173.867 48.2046 171.172 49.5906C168.477 50.9766 165.436 51.6696 162.048 51.6696ZM162.048 42.9493C163.973 42.9493 165.551 42.2948 166.783 40.9858C168.015 39.6383 168.631 37.7903 168.631 35.4418C168.631 33.1318 168.015 31.3223 166.783 30.0133C165.551 28.7043 163.973 28.0498 162.048 28.0498C160.123 28.0498 158.544 28.7043 157.312 30.0133C156.08 31.3223 155.464 33.1318 155.464 35.4418C155.464 37.7903 156.08 39.6383 157.312 40.9858C158.544 42.2948 160.123 42.9493 162.048 42.9493Z" fill="#EFF5E9"/>
<path d="M234.661 19.8493L223.515 51.1498H212.889L206.998 34.1136L200.877 51.1498H190.251L179.105 19.8493H189.5L195.91 38.7913L202.552 19.8493H211.907L218.375 38.9646L225.016 19.8493H234.661Z" fill="#EFF5E9"/>
<path d="M252.009 51.6696C248.544 51.6696 245.445 50.9766 242.711 49.5906C239.978 48.2046 237.841 46.2796 236.301 43.8156C234.8 41.3516 234.049 38.5603 234.049 35.4418C234.049 32.3233 234.8 29.5513 236.301 27.1258C237.841 24.6618 239.978 22.7561 242.711 21.4086C245.445 20.0226 248.544 19.3296 252.009 19.3296C255.551 19.3296 258.612 20.0996 261.191 21.6396C263.771 23.1411 265.6 25.2393 266.678 27.9343L258.188 32.2656C256.764 29.4551 254.685 28.0498 251.951 28.0498C249.988 28.0498 248.352 28.7043 247.043 30.0133C245.772 31.3223 245.137 33.1318 245.137 35.4418C245.137 37.7903 245.772 39.6383 247.043 40.9858C248.352 42.2948 249.988 42.9493 251.951 42.9493C254.685 42.9493 256.764 41.5441 258.188 38.7336L266.678 43.0648C265.6 45.7598 263.771 47.8773 261.191 49.4173C258.612 50.9188 255.551 51.6696 252.009 51.6696Z" fill="#EFF5E9"/>
<path d="M301.309 35.5573C301.309 35.6343 301.251 36.5391 301.136 38.2716H278.382C278.844 39.8886 279.73 41.1398 281.039 42.0253C282.386 42.8723 284.061 43.2958 286.063 43.2958C287.565 43.2958 288.854 43.0841 289.932 42.6606C291.049 42.2371 292.165 41.5441 293.282 40.5816L299.057 46.5876C296.015 49.9756 291.569 51.6696 285.717 51.6696C282.059 51.6696 278.844 50.9766 276.072 49.5906C273.3 48.2046 271.144 46.2796 269.604 43.8156C268.103 41.3516 267.352 38.5603 267.352 35.4418C267.352 32.3618 268.084 29.6091 269.547 27.1836C271.048 24.7196 273.108 22.7946 275.726 21.4086C278.344 20.0226 281.289 19.3296 284.562 19.3296C287.68 19.3296 290.51 19.9841 293.051 21.2931C295.592 22.5636 297.594 24.4308 299.057 26.8948C300.558 29.3203 301.309 32.2078 301.309 35.5573ZM284.619 27.1258C282.925 27.1258 281.501 27.6071 280.346 28.5696C279.229 29.5321 278.517 30.8411 278.209 32.4966H291.03C290.722 30.8411 289.99 29.5321 288.835 28.5696C287.719 27.6071 286.313 27.1258 284.619 27.1258Z" fill="#EFF5E9"/>
<path d="M315.666 23.6031C316.782 22.1786 318.226 21.1198 319.997 20.4268C321.807 19.6953 323.866 19.3296 326.176 19.3296V29.2048C325.175 29.0893 324.348 29.0316 323.693 29.0316C321.345 29.0316 319.497 29.6668 318.149 30.9373C316.84 32.2078 316.186 34.1521 316.186 36.7701V51.1498H305.213V19.8493H315.666V23.6031Z" fill="#EFF5E9"/>
<path d="M363.483 19.8493L349.97 52.4203C348.391 56.2703 346.466 58.9653 344.195 60.5053C341.923 62.0838 339.151 62.8731 335.879 62.8731C334.223 62.8731 332.549 62.6036 330.855 62.0646C329.199 61.5641 327.852 60.8903 326.812 60.0433L330.624 52.3626C331.24 52.9401 331.971 53.3828 332.818 53.6908C333.704 54.0373 334.589 54.2106 335.475 54.2106C336.514 54.2106 337.361 53.9988 338.016 53.5753C338.709 53.1518 339.286 52.4781 339.748 51.5541L326.35 19.8493H337.611L345.292 38.9646L353.031 19.8493H363.483Z" fill="#EFF5E9"/>
<path d="M45.7363 9.19385C48.0022 8.58659 50.7666 8.75578 52.4434 9.19385C56.2214 10.1878 58.9767 11.8948 60.6247 14.2694C62.5326 17.0142 62.8619 20.5188 61.6097 24.6835C59.0432 33.2032 48.6185 38.4903 48.0022 38.7985" stroke="#EFF5E9" stroke-width="4" stroke-linecap="round" stroke-linejoin="round"/>
<path d="M38.5562 59.5997C39.3341 59.7477 40.1241 59.8263 40.9157 59.8278C43.1363 59.8278 45.0472 59.2009 46.591 57.9637C48.2738 56.6268 49.5125 54.66 50.0155 52.0618C50.517 49.4606 49.7844 47.0225 48.9883 44.6448C48.4249 42.9544 48.0548 40.4076 48.0019 38.8003" stroke="#EFF5E9" stroke-width="4" stroke-linecap="round" stroke-linejoin="round"/>
<path d="M17.0348 37.2879C17.0348 37.2879 8.25826 33.2003 5.69479 24.6835C4.44099 20.5203 4.77181 17.0188 6.67818 14.2695C8.32926 11.8949 11.0801 10.1879 14.8596 9.19391C16.5378 8.75433 18.1436 8.53076 19.6361 8.53076" stroke="#EFF5E9" stroke-width="4" stroke-linecap="round" stroke-linejoin="round"/>
<path d="M17.7899 38.0435C18.5452 39.5541 17.8926 42.2671 17.095 44.6478C16.2989 47.0285 15.4771 49.4847 16.0678 52.0648C16.6569 54.6419 17.8095 56.6313 19.4878 57.9682C21.0346 59.2038 22.367 59.9471 24.5875 59.9471C25.3776 59.944 27.6087 59.1918 27.6087 59.1918" stroke="#EFF5E9" stroke-width="4" stroke-linecap="round" stroke-linejoin="round"/>
<path d="M32.896 3.2998C40.8221 3.2998 47.2467 7.2923 47.2467 18.9722C47.2467 30.6536 32.896 45.5964 32.896 45.5964C32.896 45.5964 18.5454 30.6521 18.5454 18.9722C18.5454 7.29079 24.97 3.2998 32.896 3.2998Z" stroke="#EFF5E9" stroke-width="4" stroke-linecap="round" stroke-linejoin="round"/>
<path d="M33.6514 61.0499C30.6151 61.0499 28.0319 60.0484 26.2948 58.5272C24.2902 56.7628 23.269 54.2567 23.269 51.0754C23.269 48.4228 24.7041 46.2098 26.0893 44.0663C27.0742 42.5451 28.4368 39.5496 28.4368 39.5496C28.4368 39.5496 29.1543 37.0783 29.0365 35.471C28.8175 32.5042 25.9368 30.27 25.4685 28.7383C24.902 26.8349 25.041 25.6748 25.899 25.0947C26.1633 24.9135 27.1754 24.853 27.1754 24.853C27.1754 24.853 26.9851 22.0645 27.1044 21.1445C27.2479 20.0418 27.8235 18.4693 29.177 18.3529C30.1135 18.2729 30.8537 18.4134 31.3341 19.4209C31.4882 19.7472 31.5954 20.1415 31.745 20.6883C32.2481 22.5104 32.8827 24.2935 33.6438 26.0237C34.4067 24.2942 35.0428 22.5116 35.5471 20.6898C35.6982 20.143 35.8039 19.7472 35.9595 19.4209C36.4399 18.4119 37.1831 18.2729 38.1197 18.3545C39.2602 18.4542 40.0457 20.0448 40.1892 21.1445C40.3101 22.0645 40.2859 23.2896 40.1182 24.8515H40.1892C40.514 24.8515 41.1348 24.9119 41.4007 25.0932C42.2602 25.6733 42.3101 27.3893 41.8282 28.7383C41.2043 30.4906 38.4898 32.2021 38.1831 35.0223C37.9883 36.8003 38.3266 37.8472 38.8644 39.5511C39.4626 41.4469 40.2239 42.5466 41.2119 44.0663C42.5986 46.2083 44.0322 48.4243 44.0322 51.0754C44.0322 54.2567 43.014 56.7643 41.0049 58.5242C39.2647 60.0468 36.6861 61.0484 33.6498 61.0484L33.6514 61.0499Z" stroke="#EFF5E9" stroke-width="4" stroke-linecap="round" stroke-linejoin="round"/>
</svg>
